
      <svg data-logo="logo" xmlns="http://www.w3.org/2000/svg" viewBox="0 0 298 42">
        <g id="logogram" transform="translate(0, 1) rotate(0) "><path d="M0 33L4.60606 25H12.2448C17.2569 25 21.4947 28.7103 22.1571 33.6784L23 40H13L11.5585 36.6365C10.613 34.4304 8.44379 33 6.04362 33H0Z" fill="#0047C1"/><path d="M46 33L41.3939 25H33.7552C28.7431 25 24.5053 28.7103 23.8429 33.6784L23 40H33L34.4415 36.6365C35.387 34.4304 37.5562 33 39.9564 33H46Z" fill="#0047C1"/><path d="M4.60606 25L18.9999 0H23L22.6032 9.52405C22.2608 17.7406 15.7455 24.3596 7.53537 24.8316L4.60606 25Z" fill="#0047C1"/><path d="M41.3939 25L27.0001 0H23L23.3968 9.52405C23.7392 17.7406 30.2545 24.3596 38.4646 24.8316L41.3939 25Z" fill="#0047C1"/></g>
        <g id="logotype" transform="translate(52, 9.5)"><path fill="#121212" d="M22.00 0.25L22.00 4.24L19.90 4.24L19.90 16.52Q19.90 19.95 17.99 21.65Q16.08 23.35 13 23.35L13 23.35Q10.10 23.35 8.50 22.05Q6.91 20.76 6.17 19.04L6.17 19.04L9.46 16.56Q10.06 18.10 10.88 18.55Q11.71 19.01 12.55 19.01L12.55 19.01Q13.98 19.01 14.59 18.31Q15.21 17.61 15.21 16.56L15.21 16.56L15.21 4.24L11.21 4.24L11.21 0.25L22.00 0.25ZM42.16 14.95L41.45 23L24.38 23L24.38 19.01L26.83 19.01L26.83 4.24L24.38 4.24L24.38 0.25L34.70 0.25L34.70 4.24L31.52 4.24L31.52 19.01L37.47 19.01L38.17 14.60L42.16 14.95ZM65.57 19.01L65.57 23L56.30 23L56.30 19.01L57.91 19.01L53.99 14.39L50.38 19.01L52.27 19.01L52.27 23L42.75 23L42.75 19.01L45.20 19.01L51.57 11.34L45.38 4.24L43.28 4.24L43.28 0.25L52.41 0.25L52.41 4.24L50.87 4.24L54.44 8.33L57.73 4.24L56.09 4.24L56.09 0.25L65.05 0.25L65.05 4.24L62.95 4.24L56.86 11.27L63.54 19.01L65.57 19.01ZM95.43 10.43L95.43 14.39L94.31 14.39L94.31 23L90.67 23L90.21 20.62Q89.16 21.84 87.53 22.60Q85.91 23.35 83.70 23.35L83.70 23.35Q78.91 23.35 76.09 20.02Q73.27 16.70 73.27 11.80L73.27 11.80Q73.27 6.90 76.25 3.40Q79.22-0.10 85.00-0.10L85.00-0.10Q87.76-0.10 90.02 0.70Q92.28 1.51 93.40 2.63L93.40 2.63L94.03 7.56L90.25 7.91L89.62 5.25Q88.71 4.66 87.32 4.34Q85.94 4.03 84.79 4.03L84.79 4.03Q81.99 4.03 80.15 5.92Q78.31 7.81 78.31 11.73L78.31 11.73Q78.31 15.51 80.04 17.36Q81.78 19.22 84.54 19.22L84.54 19.22Q86.85 19.22 88.22 17.99Q89.58 16.77 89.58 14.53L89.58 14.53L89.58 14.39L85.14 14.39L85.14 10.43L95.43 10.43ZM108.69 17.33L112.47 18.03Q112.30 20.13 110.41 21.74Q108.52 23.35 105.12 23.35L105.12 23.35Q101.59 23.35 99.29 21.36Q97.00 19.36 97.00 15.40L97.00 15.40Q97.00 11.76 99.08 9.33Q101.17 6.90 104.91 6.90L104.91 6.90Q108.20 6.90 110.25 8.79Q112.30 10.68 112.33 13.76L112.33 13.76Q112.33 14.91 112.09 16.04L112.09 16.04L101.73 16.04Q102.11 19.78 105.44 19.78L105.44 19.78Q107.26 19.78 107.90 18.91Q108.55 18.03 108.69 17.33L108.69 17.33ZM101.76 13.41L107.68 13.41Q107.82 12.22 107.17 11.17Q106.52 10.12 104.91 10.12L104.91 10.12Q103.51 10.12 102.74 11.03Q101.97 11.94 101.76 13.41L101.76 13.41ZM143.41 19.61L143.41 23L136.80 23L136.80 14.11Q136.80 12.08 136.11 11.20Q135.43 10.33 134.10 10.33L134.10 10.33Q132.49 10.33 131.77 11.38Q131.06 12.43 131.06 14.07L131.06 14.07L131.06 19.61L133.16 19.61L133.16 23L126.54 23L126.54 14.11Q126.54 12.08 125.86 11.20Q125.18 10.33 123.85 10.33L123.85 10.33Q122.20 10.33 121.50 11.38Q120.80 12.43 120.80 14.07L120.80 14.07L120.80 19.61L123.81 19.61L123.81 23L114.19 23L114.19 19.61L116.29 19.61L116.29 10.64L114.22 10.64L114.22 7.21L120.80 7.21L120.80 9.59Q122.31 6.90 125.60 6.90L125.60 6.90Q127.31 6.90 128.75 7.74Q130.18 8.58 130.74 10.29L130.74 10.29Q132.14 6.90 135.89 6.90L135.89 6.90Q138.02 6.90 139.67 8.23Q141.31 9.56 141.31 12.36L141.31 12.36L141.31 19.61L143.41 19.61ZM159.06 18.17L159.06 18.17Q159.06 20.80 156.97 22.07Q154.89 23.35 151.57 23.35L151.57 23.35Q149.85 23.35 148.12 22.98Q146.39 22.61 144.81 21.81L144.81 21.81L145.44 17.40L148.94 17.79L148.94 19.75Q149.57 19.95 150.27 20.01Q150.97 20.06 151.32 20.06L151.32 20.06Q152.62 20.06 153.56 19.64Q154.51 19.22 154.51 18.38L154.51 18.38Q154.51 17.36 153.07 17.05Q151.64 16.73 149.75 16.42Q147.86 16.11 146.42 15.13Q144.99 14.14 144.99 11.80L144.99 11.80Q144.99 8.89 147.24 7.90Q149.50 6.90 151.92 6.90L151.92 6.90Q155.07 6.90 157.83 8.33L157.83 8.33L158.22 12.36L154.72 12.74L154.44 10.54Q153.28 10.15 151.95 10.15L151.95 10.15Q151.08 10.15 150.46 10.52Q149.85 10.89 149.85 11.66L149.85 11.66Q149.85 12.67 151.23 13.01Q152.62 13.34 154.45 13.65Q156.29 13.97 157.67 14.93Q159.06 15.89 159.06 18.17ZM170.81 17.09L174.11 18.10Q173.76 20.83 172.22 22.09Q170.68 23.35 168.23 23.35L168.23 23.35Q165.60 23.35 163.97 22.04Q162.34 20.73 162.34 18.27L162.34 18.27L162.34 10.43L160.11 10.43L160.11 7.21L162.34 7.21L162.34 2.42L166.86 2.42L166.86 7.21L172.53 7.21L172.53 10.43L166.86 10.43L166.86 17.50Q166.86 19.57 168.75 19.57L168.75 19.57Q169.17 19.57 169.89 19.20Q170.61 18.84 170.81 17.09L170.81 17.09ZM191.43 15.13L191.43 15.13Q191.43 18.87 188.98 21.11Q186.53 23.35 182.75 23.35L182.75 23.35Q179.11 23.35 176.82 21.23Q174.53 19.11 174.53 15.30L174.53 15.30Q174.53 11.83 176.63 9.35Q178.73 6.86 183.00 6.86L183.00 6.86Q187.27 6.86 189.35 9.33Q191.43 11.80 191.43 15.13ZM186.78 14.98L186.78 14.98Q186.78 12.57 185.66 11.45Q184.54 10.33 182.93 10.33L182.93 10.33Q181.18 10.33 180.18 11.57Q179.18 12.81 179.18 15.05L179.18 15.05Q179.18 17.09 180.11 18.48Q181.04 19.88 182.89 19.88L182.89 19.88Q184.64 19.88 185.71 18.57Q186.78 17.26 186.78 14.98ZM212.47 19.61L212.47 23L203.75 23L203.75 19.61L205.85 19.61L205.85 14.11Q205.85 12.08 205.17 11.20Q204.49 10.33 203.16 10.33L203.16 10.33Q201.55 10.33 200.67 11.33Q199.80 12.32 199.76 13.93L199.76 13.93L199.76 19.61L201.86 19.61L201.86 23L193.15 23L193.15 19.61L195.25 19.61L195.25 10.64L192.97 10.64L192.97 7.21L199.76 7.21L199.76 9.63Q201.34 6.90 204.84 6.90L204.84 6.90Q207.08 6.90 208.72 8.23Q210.37 9.56 210.37 12.36L210.37 12.36L210.37 19.61L212.47 19.61ZM225.31 17.33L229.09 18.03Q228.92 20.13 227.03 21.74Q225.14 23.35 221.74 23.35L221.74 23.35Q218.21 23.35 215.91 21.36Q213.62 19.36 213.62 15.40L213.62 15.40Q213.62 11.76 215.70 9.33Q217.79 6.90 221.53 6.90L221.53 6.90Q224.82 6.90 226.87 8.79Q228.92 10.68 228.95 13.76L228.95 13.76Q228.95 14.91 228.71 16.04L228.71 16.04L218.35 16.04Q218.73 19.78 222.06 19.78L222.06 19.78Q223.88 19.78 224.52 18.91Q225.17 18.03 225.31 17.33L225.31 17.33ZM218.38 13.41L224.30 13.41Q224.44 12.22 223.79 11.17Q223.14 10.12 221.53 10.12L221.53 10.12Q220.13 10.12 219.36 11.03Q218.59 11.94 218.38 13.41L218.38 13.41ZM245.02 18.17L245.02 18.17Q245.02 20.80 242.93 22.07Q240.85 23.35 237.53 23.35L237.53 23.35Q235.81 23.35 234.08 22.98Q232.35 22.61 230.77 21.81L230.77 21.81L231.40 17.40L234.90 17.79L234.90 19.75Q235.53 19.95 236.23 20.01Q236.93 20.06 237.28 20.06L237.28 20.06Q238.58 20.06 239.52 19.64Q240.47 19.22 240.47 18.38L240.47 18.38Q240.47 17.36 239.03 17.05Q237.60 16.73 235.71 16.42Q233.82 16.11 232.38 15.13Q230.95 14.14 230.95 11.80L230.95 11.80Q230.95 8.89 233.20 7.90Q235.46 6.90 237.88 6.90L237.88 6.90Q241.03 6.90 243.79 8.33L243.79 8.33L244.18 12.36L240.68 12.74L240.40 10.54Q239.24 10.15 237.91 10.15L237.91 10.15Q237.04 10.15 236.42 10.52Q235.81 10.89 235.81 11.66L235.81 11.66Q235.81 12.67 237.19 13.01Q238.58 13.34 240.41 13.65Q242.25 13.97 243.63 14.93Q245.02 15.89 245.02 18.17Z"/></g>
        
      </svg>
    